<?xml version="1.0" encoding="UTF-8"?>
<svg id="Layer_1" data-name="Layer 1" xmlns="http://www.w3.org/2000/svg" xmlns:xlink="http://www.w3.org/1999/xlink" viewBox="0 0 994 183.5">
  <defs>
    <style>
      .cls-1 {
        fill: url(#linear-gradient);
      }

      .cls-1, .cls-2 {
        stroke-width: 0px;
      }

      .cls-2 {
        fill: #fff;
      }
    </style>
    <linearGradient id="linear-gradient" x1="317.59" y1="419.36" x2="690.12" y2="-214.58" gradientUnits="userSpaceOnUse">
      <stop offset="0" stop-color="#e8b500"/>
      <stop offset=".39" stop-color="#eebe00"/>
      <stop offset="1" stop-color="#ffd600"/>
    </linearGradient>
  </defs>
  <g>
    <path class="cls-2" d="m69.04,60.9l-3.8,9.22c-4.99,11.83-9.64,23.63-13.94,35.38-2.07,5.69-5.22,15.6-9.45,29.73,6.38-.54,14.94-1.88,25.7-4.04,6.91-1.38,11.1-2.07,12.56-2.07,2.69,0,4.03,1.08,4.03,3.23,0,2.54-1.48,6.09-4.44,10.66-2.96,4.57-6.28,8.51-9.97,11.81-2.54,2.38-6.3,4.03-11.29,4.96-5,.92-12.79,1.38-23.39,1.38-9.91,0-17.56-.31-22.93-.92-.08,0-1.35-.39-3.8-1.15-4.38-1.84-6.57-5.68-6.57-11.52,0-4.22,1.21-11.94,3.63-23.16,2.42-11.22,5.93-25.16,10.54-41.83C26.38,45.39,34.26,22.42,39.56,13.66c1.69-3,3.82-5.32,6.39-6.97,2.57-1.65,6.08-2.94,10.54-3.86,4.3-.92,9.25-1.38,14.86-1.38,5.22,0,8.89.67,11,2.02,2.11,1.35,3.17,3.67,3.17,6.97s-1.38,9.04-4.15,17.69-6.88,19.57-12.33,32.78Z"/>
    <path class="cls-2" d="m133.82,127.63c.84,4.61,3.84,6.91,8.99,6.91,5.76,0,13.25-3.38,22.47-10.14,5.38-3.92,8.99-5.88,10.83-5.88,2.3,0,4.45.62,6.45,1.84,2,1.23,3,2.5,3,3.8,0,1.38-1.12,3.19-3.34,5.42-4.07,4.07-8.76,8.05-14.06,11.93-5.3,3.88-10.41,7.11-15.33,9.68-4.92,2.58-9.83,4.61-14.75,6.11-4.92,1.5-9.3,2.25-13.14,2.25-9.6,0-17.29-2.75-23.05-8.24-5.76-5.49-8.64-12.81-8.64-21.95,0-6.99,1.52-14.88,4.55-23.68,3.03-8.8,7.12-17.04,12.27-24.72,6.07-8.99,13.52-16.48,22.36-22.47,10.91-7.22,21.36-10.83,31.34-10.83,7.22,0,12.89,2.29,17,6.86,4.11,4.57,6.17,10.85,6.17,18.84,0,6.22-1.63,12.72-4.9,19.47-3.27,6.76-8.09,13.25-14.46,19.47-5.23,5.23-10.35,9.3-15.38,12.21-5.03,2.92-9.43,4.38-13.19,4.38-1.69,0-3.42-.42-5.19-1.27Zm-.23-3.69c3.53-2.38,6.22-4.76,8.07-7.14,4.07-4.99,7.22-10.72,9.45-17.17,1.77-4.22,3.15-8.95,4.15-14.17,1-5.22,1.5-10.1,1.5-14.63,0-4.22-.88-6.34-2.65-6.34-2.46,0-6.22,5.42-11.29,16.25-3,6.53-5.44,13.04-7.32,19.53-1.88,6.49-2.82,12.08-2.82,16.77,0,1.61.31,3.92.92,6.91Z"/>
    <path class="cls-2" d="m320.27,118.06l-31.46,32.27c-4.07,4.07-7.36,6.86-9.85,8.35-2.5,1.5-5.24,2.25-8.24,2.25-4.69,0-8.62-1.75-11.81-5.24-3.19-3.5-4.78-7.78-4.78-12.85,0-3.15.48-6.59,1.44-10.31.96-3.73,2.86-9.28,5.7-16.65.54-1.54,1.05-2.86,1.56-3.98.5-1.11.9-2.05,1.21-2.82l-.46-.46c-7.45,7.84-14.75,16.09-21.89,24.78-5.99,7.14-10.76,12.49-14.29,16.02-3.54,3.53-6.72,6.18-9.56,7.95-2.84,1.77-5.38,2.65-7.61,2.65-5,0-8.95-1.96-11.87-5.88-2.92-3.92-4.38-9.26-4.38-16.02,0-8.53,3.69-22.32,11.06-41.37,6.61-16.9,11.71-28.23,15.32-33.99,5.3-7.99,11.36-11.98,18.2-11.98,4.14,0,7.58.98,10.31,2.94,2.73,1.96,4.09,4.51,4.09,7.66,0,5.76-2.18,14.55-6.54,26.37-1.68,4.38-3.4,9.33-5.17,14.85l.46.46c2.84-3.15,7.41-8.56,13.7-16.24,10.82-13.36,19-22.46,24.53-27.29,7.15-6.6,13.68-9.9,19.6-9.9,2.61,0,5.11.88,7.49,2.65s4.28,4.13,5.71,7.09c1.42,2.96,2.13,6.05,2.13,9.28s-2.37,11.76-7.12,25.36c-1,2.84-1.76,5.07-2.29,6.69-.54,1.62-1.03,3-1.49,4.15l.57.46c1.07-1.08,2.03-2.03,2.88-2.88.84-.85,1.78-1.75,2.82-2.71,1.04-.96,2.01-1.87,2.93-2.71,2.07-2,7.29-7.26,15.65-15.8,5.52-6.15,9.86-10.36,13.01-12.62,3.15-2.27,6.18-3.4,9.1-3.4,4.76,0,8.39,1.63,10.89,4.9,2.5,3.27,3.75,8.09,3.75,14.46,0,3.92-.62,10.1-1.84,18.55-1.08,9.53-1.83,17-2.25,22.41-.42,5.42-.63,9.2-.63,11.35,0,1.61.09,3.67.29,6.17.19,2.5.52,5.17.98,8.01.46,2.84,1.07,5.99,1.84,9.45.92,4.22,1.54,7.53,1.84,9.91-.62,2.77-2.63,5.11-6.05,7.03-3.42,1.92-7.13,2.88-11.12,2.88-6.3,0-12.21-2.84-17.75-8.53-2.46-2.61-4.36-5.24-5.7-7.89-1.35-2.65-2.3-5.8-2.88-9.45-.58-3.65-.86-8.47-.86-14.46,0-3.92.46-12.02,1.38-24.31l-.46-.46-2.07,2.88Z"/>
    <path class="cls-2" d="m453.36,43.85c11.45,0,17.17,1.35,17.17,4.03,0,3.07-2.58,4.72-7.72,4.96-6.22.39-12.02,2.15-17.4,5.3-5.38,3.15-10.16,7.45-14.35,12.91-4.19,5.46-7.45,11.6-9.79,18.44-2.34,6.84-3.51,14.06-3.51,21.66,0,8.37,1.96,15.12,5.88,20.22,3.92,5.11,9.03,7.66,15.33,7.66,5.84,0,10.95-3,15.33-8.99s6.57-12.98,6.57-20.97c0-6.53-1.37-12.66-4.09-18.38-2.73-5.72-6.7-10.54-11.93-14.46-2.23-1.77-3.34-3.03-3.34-3.8,0-1.08,1.57-2.73,4.72-4.96,3.53-2.38,7.49-4.38,11.87-5.99s8.07-2.42,11.06-2.42c3.46,0,6.74.9,9.85,2.71,3.11,1.81,5.86,4.38,8.24,7.72,2.38,3.34,4.21,7.18,5.47,11.52,1.27,4.34,1.9,8.97,1.9,13.89,0,8.14-1.54,16.19-4.61,24.14-3.07,7.95-7.11,14.39-12.1,19.3-6.45,6.22-14.23,11.31-23.33,15.27-9.1,3.96-17.77,5.93-25.99,5.93s-15.92-1.38-23.8-4.15c-7.88-2.77-14.12-6.41-18.73-10.95-6.15-6.15-9.22-14.87-9.22-26.16,0-8.91,2.19-17.82,6.57-26.73,4.38-8.91,10.31-17,17.8-24.26s15.75-12.98,24.78-17.17c9.03-4.19,18.15-6.28,27.37-6.28Z"/>
    <path class="cls-2" d="m553.81,99.02l6.95-8.09c7.02-7.78,12.59-13.58,16.69-17.39,4.11-3.81,7.79-6.56,11.05-8.25s6.58-2.54,9.96-2.54c5.45,0,9.29,1.46,11.51,4.38,2.22,2.92,3.34,7.99,3.34,15.21,0,3-.31,7.42-.92,13.25-.92,7.76-1.38,15.06-1.38,21.89,0,7.68.38,13.91,1.15,18.67.54,2.92,1.34,5.84,2.42,8.76.77,2.77,1.15,4.65,1.15,5.65,0,1.23-.46,2.19-1.38,2.88-2.38,2.07-5.53,3.88-9.45,5.42s-7.22,2.3-9.91,2.3c-4.38,0-8.35-1.5-11.93-4.49s-6.34-7.14-8.3-12.45-2.94-11.29-2.94-17.98c0-4.45.46-9.72,1.38-15.79l-.46-.46c-3.3,3.69-5.97,6.61-8.01,8.76-2.04,2.15-3.94,4.19-5.7,6.11-8.61,9.83-15.9,18.71-21.89,26.62-2.3,3.07-4.42,5.76-6.34,8.07-2.84,2.84-6.07,4.26-9.68,4.26-4.92,0-8.91-1.84-11.98-5.53-3.07-3.69-4.61-8.45-4.61-14.29,0-3.61.42-8.03,1.27-13.25.84-5.22,1.98-10.81,3.4-16.77,1.42-5.95,3.11-12.08,5.07-18.38,1.96-6.3,4.09-12.29,6.4-17.98,3.53-9.45,7.84-16.82,12.91-22.12,3.46-3.46,7.64-5.19,12.56-5.19,7.99,0,11.99,5.19,11.99,15.56,0,7.61-1.59,18.5-4.77,32.69l.46.46Z"/>
    <path class="cls-2" d="m641.63,160.93c-3.45-.23-6.6-1.8-9.44-4.72-2.84-3.07-4.85-6.4-6.04-9.97s-1.78-8.2-1.78-13.89c0-12.68,2.36-26.98,7.09-42.92,4.72-15.94,10.08-27.48,16.07-34.63,2.38-3,5.68-4.49,9.91-4.49,4.46,0,8.04,2.04,10.77,6.11,2.73,4.07,4.09,9.41,4.09,16.02,0,9.76-1.41,21.18-4.22,34.28-2.81,13.1-6.75,26.71-11.83,40.85-2,5.69-4.45,9.53-7.37,11.53-2,1.23-4.34,1.85-7.02,1.85h-.23Zm13.85-115.81c-7.22-.23-10.83-4.57-10.83-13.02,0-4.22,1.05-9.12,3.17-14.69,2.11-5.57,4.51-9.7,7.2-12.39,1.38-1.46,2.78-2.5,4.21-3.11,1.42-.61,3.24-.92,5.47-.92,3.84,0,6.66.94,8.47,2.82,1.8,1.88,2.71,5.01,2.71,9.39,0,5.46-.94,10.62-2.82,15.5-1.88,4.88-4.4,8.84-7.55,11.87-3.15,3.04-6.38,4.55-9.68,4.55h-.35Z"/>
    <path class="cls-2" d="m718.06,164.73c4.53-.23,8.66-2.44,12.39-6.63,3.72-4.19,5.59-8.74,5.59-13.66,0-3.38-1.12-6.07-3.34-8.07-2.38-2.38-7.72-4.72-16.02-7.03-12.21-3.53-20.17-7.49-23.85-11.87-3.46-3.53-5.19-7.76-5.19-12.68,0-8.83,3.21-17.67,9.62-26.5,6.41-8.83,14.61-16.08,24.6-21.72,9.99-5.65,20.05-8.47,30.19-8.47,4.92,0,9.52,1.15,13.83,3.46,4.3,2.3,7.72,5.36,10.26,9.16s3.8,7.93,3.8,12.39-1.38,8.91-4.15,13.6c-2.77,4.69-6.24,8.58-10.43,11.7-4.19,3.11-8.16,4.67-11.93,4.67-2.15,0-4.02-.46-5.59-1.38-1.58-.92-2.36-1.92-2.36-3s.31-2.65.92-4.72c1.69-6.61,2.54-12.37,2.54-17.29s-1.46-9.41-4.38-13.71c-3.77,2.61-6.22,4.68-7.38,6.22-2.92,3.38-5.19,7.22-6.8,11.51-1.77,4.38-2.65,8.52-2.65,12.43,0,2.76.64,4.97,1.91,6.62,1.27,1.65,3.35,3.05,6.23,4.21s7.24,2.42,13.08,3.81c9.75,2.39,16.63,4.69,20.62,6.92.92.54,2.34,1.65,4.26,3.34,2.92,3.15,4.38,7.23,4.38,12.22,0,5.3-1.65,10.66-4.96,16.08-3.3,5.42-8.41,11.01-15.33,16.77-7.38,6.22-14.71,10.68-22.01,13.37-7.3,2.69-15.37,4.04-24.2,4.04s-15.23-1.69-20.11-5.07c-4.88-3.38-7.32-7.99-7.32-13.83,0-4.15,1.61-8.35,4.84-12.62s7.24-7.74,12.04-10.43c4.8-2.69,9.51-4.03,14.12-4.03,3.46,0,5.19.77,5.19,2.3,0,.77-.5,2.04-1.5,3.8-3,5.38-4.49,10.33-4.49,14.87,0,3.23,1.19,6.3,3.57,9.22Z"/>
    <path class="cls-2" d="m811.4,48.35l.46-1.38c5.08-14.29,9.46-24.35,13.15-30.19,1.77-2.77,4.23-5.22,7.38-7.38,5.92-3.76,11.5-5.65,16.73-5.65,3.08,0,5.42.69,7.04,2.08,1.62,1.38,2.42,3.39,2.42,6,0,1.77-1.16,5.38-3.48,10.82-3.94,9.06-6.88,17.55-8.81,25.46,1.31.15,2.58.39,3.81.69,4.62.69,7.65,1.48,9.11,2.36,1.46.88,2.19,2.48,2.19,4.78,0,4.07-1.04,7.84-3.11,11.3-2.07,3.46-4.8,6-8.18,7.61-2.53,1.15-6.64,1.92-12.32,2.3-.99,3-2.09,7.11-3.3,12.34-.68,4.61-1.44,10.99-2.28,19.14-.46,2.99-.69,5.8-.69,8.41,0,12.13,5.88,18.19,17.63,18.19h1.04c1.38,0,2.07.23,2.07.69,0,1.23-1.31,3.3-3.92,6.22-2.61,2.92-5.49,5.49-8.64,7.72-3.38,2.3-7.07,4.15-11.07,5.53-4,1.38-7.62,2.07-10.85,2.07-8.08,0-14.64-2.73-19.68-8.18-5.04-5.45-7.56-12.68-7.56-21.66,0-3.84.67-8.87,2.02-15.1,1.34-6.22,3.44-14.56,6.28-25.01.46-1.84.96-3.78,1.5-5.82.54-2.03.84-3.24.92-3.63-3.07-.08-5.26-.73-6.57-1.96-1.31-1.23-1.96-3.23-1.96-5.99,0-4.84,1.86-9.41,5.59-13.71,3.72-4.3,8.08-6.99,13.08-8.07Z"/>
    <path class="cls-2" d="m949.68,126.24v.46l-.46-.46c-7.14,8.37-13.7,15.23-19.65,20.57-5.96,5.34-11.45,9.35-16.48,12.04-5.03,2.69-9.66,4.03-13.89,4.03-8.61,0-15.71-2.88-21.32-8.64-5.61-5.76-8.41-13.06-8.41-21.89,0-5.45,1.38-11.91,4.15-19.36,2.77-7.45,6.57-14.75,11.41-21.89,8.07-11.68,18.21-21.59,30.42-29.73,12.6-8.37,24.74-12.56,36.41-12.56,9.83,0,17.92,2.02,24.26,6.05s9.51,9.12,9.51,15.27c0,4.53-1.58,9.33-4.72,14.4,4.15,0,6.76.44,7.84,1.33,1.07.88,1.61,2.94,1.61,6.17,0-.31-.19,1.27-.58,4.72-.46,7.61-.69,14.71-.69,21.32,0,3.46.04,6.07.12,7.84.08,1.77.23,3.8.46,6.11s.46,4.15.69,5.53c.61,3.61,1.61,7.18,3,10.72-4.61,4.53-9.03,7.86-13.25,9.97-4.23,2.11-8.53,3.17-12.91,3.17-11.83,0-17.75-9.91-17.75-29.73,0-2.3.08-4.11.23-5.42Zm6.91-26.39l-2.19.69c-5.53,1.54-9.53,2.3-11.98,2.3-3,0-4.49-.77-4.49-2.3,0-.54.61-1.96,1.84-4.26,4.3-6.53,6.45-12.68,6.45-18.44,0-3.3-.58-6.32-1.73-9.05-1.15-2.73-2.42-4.09-3.8-4.09-1.23,0-3.11,1.31-5.65,3.92-7.14,7.76-12.81,15.71-17,23.85-4.19,8.14-6.28,15.4-6.28,21.78,0,4.23.86,7.72,2.59,10.49s3.9,4.15,6.51,4.15c2.23,0,6.4-2.38,12.5-7.14,6.11-4.76,12.96-11.06,20.57-18.9l3.11-2.54-.46-.46Z"/>
  </g>
  <g>
    <path class="cls-1" d="m69.04,60.9l-3.8,9.22c-4.99,11.83-9.64,23.63-13.94,35.38-2.07,5.69-5.22,15.6-9.45,29.73,6.38-.54,14.94-1.88,25.7-4.04,6.91-1.38,11.1-2.07,12.56-2.07,2.69,0,4.03,1.08,4.03,3.23,0,2.54-1.48,6.09-4.44,10.66-2.96,4.57-6.28,8.51-9.97,11.81-2.54,2.38-6.3,4.03-11.29,4.96-5,.92-12.79,1.38-23.39,1.38-9.91,0-17.56-.31-22.93-.92-.08,0-1.35-.39-3.8-1.15-4.38-1.84-6.57-5.68-6.57-11.52,0-4.22,1.21-11.94,3.63-23.16,2.42-11.22,5.93-25.16,10.54-41.83C26.38,45.39,34.26,22.42,39.56,13.66c1.69-3,3.82-5.32,6.39-6.97,2.57-1.65,6.08-2.94,10.54-3.86,4.3-.92,9.25-1.38,14.86-1.38,5.22,0,8.89.67,11,2.02,2.11,1.35,3.17,3.67,3.17,6.97s-1.38,9.04-4.15,17.69-6.88,19.57-12.33,32.78Z"/>
    <path class="cls-1" d="m133.82,127.63c.84,4.61,3.84,6.91,8.99,6.91,5.76,0,13.25-3.38,22.47-10.14,5.38-3.92,8.99-5.88,10.83-5.88,2.3,0,4.45.62,6.45,1.84,2,1.23,3,2.5,3,3.8,0,1.38-1.12,3.19-3.34,5.42-4.07,4.07-8.76,8.05-14.06,11.93-5.3,3.88-10.41,7.11-15.33,9.68-4.92,2.58-9.83,4.61-14.75,6.11-4.92,1.5-9.3,2.25-13.14,2.25-9.6,0-17.29-2.75-23.05-8.24-5.76-5.49-8.64-12.81-8.64-21.95,0-6.99,1.52-14.88,4.55-23.68,3.03-8.8,7.12-17.04,12.27-24.72,6.07-8.99,13.52-16.48,22.36-22.47,10.91-7.22,21.36-10.83,31.34-10.83,7.22,0,12.89,2.29,17,6.86,4.11,4.57,6.17,10.85,6.17,18.84,0,6.22-1.63,12.72-4.9,19.47-3.27,6.76-8.09,13.25-14.46,19.47-5.23,5.23-10.35,9.3-15.38,12.21-5.03,2.92-9.43,4.38-13.19,4.38-1.69,0-3.42-.42-5.19-1.27Zm-.23-3.69c3.53-2.38,6.22-4.76,8.07-7.14,4.07-4.99,7.22-10.72,9.45-17.17,1.77-4.22,3.15-8.95,4.15-14.17,1-5.22,1.5-10.1,1.5-14.63,0-4.22-.88-6.34-2.65-6.34-2.46,0-6.22,5.42-11.29,16.25-3,6.53-5.44,13.04-7.32,19.53-1.88,6.49-2.82,12.08-2.82,16.77,0,1.61.31,3.92.92,6.91Z"/>
    <path class="cls-1" d="m320.27,118.06l-31.46,32.27c-4.07,4.07-7.36,6.86-9.85,8.35-2.5,1.5-5.24,2.25-8.24,2.25-4.69,0-8.62-1.75-11.81-5.24-3.19-3.5-4.78-7.78-4.78-12.85,0-3.15.48-6.59,1.44-10.31.96-3.73,2.86-9.28,5.7-16.65.54-1.54,1.05-2.86,1.56-3.98.5-1.11.9-2.05,1.21-2.82l-.46-.46c-7.45,7.84-14.75,16.09-21.89,24.78-5.99,7.14-10.76,12.49-14.29,16.02-3.54,3.53-6.72,6.18-9.56,7.95-2.84,1.77-5.38,2.65-7.61,2.65-5,0-8.95-1.96-11.87-5.88-2.92-3.92-4.38-9.26-4.38-16.02,0-8.53,3.69-22.32,11.06-41.37,6.61-16.9,11.71-28.23,15.32-33.99,5.3-7.99,11.36-11.98,18.2-11.98,4.14,0,7.58.98,10.31,2.94,2.73,1.96,4.09,4.51,4.09,7.66,0,5.76-2.18,14.55-6.54,26.37-1.68,4.38-3.4,9.33-5.17,14.85l.46.46c2.84-3.15,7.41-8.56,13.7-16.24,10.82-13.36,19-22.46,24.53-27.29,7.15-6.6,13.68-9.9,19.6-9.9,2.61,0,5.11.88,7.49,2.65s4.28,4.13,5.71,7.09c1.42,2.96,2.13,6.05,2.13,9.28s-2.37,11.76-7.12,25.36c-1,2.84-1.76,5.07-2.29,6.69-.54,1.62-1.03,3-1.49,4.15l.57.46c1.07-1.08,2.03-2.03,2.88-2.88.84-.85,1.78-1.75,2.82-2.71,1.04-.96,2.01-1.87,2.93-2.71,2.07-2,7.29-7.26,15.65-15.8,5.52-6.15,9.86-10.36,13.01-12.62,3.15-2.27,6.18-3.4,9.1-3.4,4.76,0,8.39,1.63,10.89,4.9,2.5,3.27,3.75,8.09,3.75,14.46,0,3.92-.62,10.1-1.84,18.55-1.08,9.53-1.83,17-2.25,22.41-.42,5.42-.63,9.2-.63,11.35,0,1.61.09,3.67.29,6.17.19,2.5.52,5.17.98,8.01.46,2.84,1.07,5.99,1.84,9.45.92,4.22,1.54,7.53,1.84,9.91-.62,2.77-2.63,5.11-6.05,7.03-3.42,1.92-7.13,2.88-11.12,2.88-6.3,0-12.21-2.84-17.75-8.53-2.46-2.61-4.36-5.24-5.7-7.89-1.35-2.65-2.3-5.8-2.88-9.45-.58-3.65-.86-8.47-.86-14.46,0-3.92.46-12.02,1.38-24.31l-.46-.46-2.07,2.88Z"/>
    <path class="cls-1" d="m453.36,43.85c11.45,0,17.17,1.35,17.17,4.03,0,3.07-2.58,4.72-7.72,4.96-6.22.39-12.02,2.15-17.4,5.3-5.38,3.15-10.16,7.45-14.35,12.91-4.19,5.46-7.45,11.6-9.79,18.44-2.34,6.84-3.51,14.06-3.51,21.66,0,8.37,1.96,15.12,5.88,20.22,3.92,5.11,9.03,7.66,15.33,7.66,5.84,0,10.95-3,15.33-8.99s6.57-12.98,6.57-20.97c0-6.53-1.37-12.66-4.09-18.38-2.73-5.72-6.7-10.54-11.93-14.46-2.23-1.77-3.34-3.03-3.34-3.8,0-1.08,1.57-2.73,4.72-4.96,3.53-2.38,7.49-4.38,11.87-5.99s8.07-2.42,11.06-2.42c3.46,0,6.74.9,9.85,2.71,3.11,1.81,5.86,4.38,8.24,7.72,2.38,3.34,4.21,7.18,5.47,11.52,1.27,4.34,1.9,8.97,1.9,13.89,0,8.14-1.54,16.19-4.61,24.14-3.07,7.95-7.11,14.39-12.1,19.3-6.45,6.22-14.23,11.31-23.33,15.27-9.1,3.96-17.77,5.93-25.99,5.93s-15.92-1.38-23.8-4.15c-7.88-2.77-14.12-6.41-18.73-10.95-6.15-6.15-9.22-14.87-9.22-26.16,0-8.91,2.19-17.82,6.57-26.73,4.38-8.91,10.31-17,17.8-24.26s15.75-12.98,24.78-17.17c9.03-4.19,18.15-6.28,27.37-6.28Z"/>
    <path class="cls-1" d="m553.81,99.02l6.95-8.09c7.02-7.78,12.59-13.58,16.69-17.39,4.11-3.81,7.79-6.56,11.05-8.25s6.58-2.54,9.96-2.54c5.45,0,9.29,1.46,11.51,4.38,2.22,2.92,3.34,7.99,3.34,15.21,0,3-.31,7.42-.92,13.25-.92,7.76-1.38,15.06-1.38,21.89,0,7.68.38,13.91,1.15,18.67.54,2.92,1.34,5.84,2.42,8.76.77,2.77,1.15,4.65,1.15,5.65,0,1.23-.46,2.19-1.38,2.88-2.38,2.07-5.53,3.88-9.45,5.42s-7.22,2.3-9.91,2.3c-4.38,0-8.35-1.5-11.93-4.49s-6.34-7.14-8.3-12.45-2.94-11.29-2.94-17.98c0-4.45.46-9.72,1.38-15.79l-.46-.46c-3.3,3.69-5.97,6.61-8.01,8.76-2.04,2.15-3.94,4.19-5.7,6.11-8.61,9.83-15.9,18.71-21.89,26.62-2.3,3.07-4.42,5.76-6.34,8.07-2.84,2.84-6.07,4.26-9.68,4.26-4.92,0-8.91-1.84-11.98-5.53-3.07-3.69-4.61-8.45-4.61-14.29,0-3.61.42-8.03,1.27-13.25.84-5.22,1.98-10.81,3.4-16.77,1.42-5.95,3.11-12.08,5.07-18.38,1.96-6.3,4.09-12.29,6.4-17.98,3.53-9.45,7.84-16.82,12.91-22.12,3.46-3.46,7.64-5.19,12.56-5.19,7.99,0,11.99,5.19,11.99,15.56,0,7.61-1.59,18.5-4.77,32.69l.46.46Z"/>
    <path class="cls-1" d="m641.63,160.93c-3.45-.23-6.6-1.8-9.44-4.72-2.84-3.07-4.85-6.4-6.04-9.97s-1.78-8.2-1.78-13.89c0-12.68,2.36-26.98,7.09-42.92,4.72-15.94,10.08-27.48,16.07-34.63,2.38-3,5.68-4.49,9.91-4.49,4.46,0,8.04,2.04,10.77,6.11,2.73,4.07,4.09,9.41,4.09,16.02,0,9.76-1.41,21.18-4.22,34.28-2.81,13.1-6.75,26.71-11.83,40.85-2,5.69-4.45,9.53-7.37,11.53-2,1.23-4.34,1.85-7.02,1.85h-.23Zm13.85-115.81c-7.22-.23-10.83-4.57-10.83-13.02,0-4.22,1.05-9.12,3.17-14.69,2.11-5.57,4.51-9.7,7.2-12.39,1.38-1.46,2.78-2.5,4.21-3.11,1.42-.61,3.24-.92,5.47-.92,3.84,0,6.66.94,8.47,2.82,1.8,1.88,2.71,5.01,2.71,9.39,0,5.46-.94,10.62-2.82,15.5-1.88,4.88-4.4,8.84-7.55,11.87-3.15,3.04-6.38,4.55-9.68,4.55h-.35Z"/>
    <path class="cls-1" d="m718.06,164.73c4.53-.23,8.66-2.44,12.39-6.63,3.72-4.19,5.59-8.74,5.59-13.66,0-3.38-1.12-6.07-3.34-8.07-2.38-2.38-7.72-4.72-16.02-7.03-12.21-3.53-20.17-7.49-23.85-11.87-3.46-3.53-5.19-7.76-5.19-12.68,0-8.83,3.21-17.67,9.62-26.5,6.41-8.83,14.61-16.08,24.6-21.72,9.99-5.65,20.05-8.47,30.19-8.47,4.92,0,9.52,1.15,13.83,3.46,4.3,2.3,7.72,5.36,10.26,9.16s3.8,7.93,3.8,12.39-1.38,8.91-4.15,13.6c-2.77,4.69-6.24,8.58-10.43,11.7-4.19,3.11-8.16,4.67-11.93,4.67-2.15,0-4.02-.46-5.59-1.38-1.58-.92-2.36-1.92-2.36-3s.31-2.65.92-4.72c1.69-6.61,2.54-12.37,2.54-17.29s-1.46-9.41-4.38-13.71c-3.77,2.61-6.22,4.68-7.38,6.22-2.92,3.38-5.19,7.22-6.8,11.51-1.77,4.38-2.65,8.52-2.65,12.43,0,2.76.64,4.97,1.91,6.62,1.27,1.65,3.35,3.05,6.23,4.21s7.24,2.42,13.08,3.81c9.75,2.39,16.63,4.69,20.62,6.92.92.54,2.34,1.65,4.26,3.34,2.92,3.15,4.38,7.23,4.38,12.22,0,5.3-1.65,10.66-4.96,16.08-3.3,5.42-8.41,11.01-15.33,16.77-7.38,6.22-14.71,10.68-22.01,13.37-7.3,2.69-15.37,4.04-24.2,4.04s-15.23-1.69-20.11-5.07c-4.88-3.38-7.32-7.99-7.32-13.83,0-4.15,1.61-8.35,4.84-12.62s7.24-7.74,12.04-10.43c4.8-2.69,9.51-4.03,14.12-4.03,3.46,0,5.19.77,5.19,2.3,0,.77-.5,2.04-1.5,3.8-3,5.38-4.49,10.33-4.49,14.87,0,3.23,1.19,6.3,3.57,9.22Z"/>
    <path class="cls-1" d="m811.4,48.35l.46-1.38c5.08-14.29,9.46-24.35,13.15-30.19,1.77-2.77,4.23-5.22,7.38-7.38,5.92-3.76,11.5-5.65,16.73-5.65,3.08,0,5.42.69,7.04,2.08,1.62,1.38,2.42,3.39,2.42,6,0,1.77-1.16,5.38-3.48,10.82-3.94,9.06-6.88,17.55-8.81,25.46,1.31.15,2.58.39,3.81.69,4.62.69,7.65,1.48,9.11,2.36,1.46.88,2.19,2.48,2.19,4.78,0,4.07-1.04,7.84-3.11,11.3-2.07,3.46-4.8,6-8.18,7.61-2.53,1.15-6.64,1.92-12.32,2.3-.99,3-2.09,7.11-3.3,12.34-.68,4.61-1.44,10.99-2.28,19.14-.46,2.99-.69,5.8-.69,8.41,0,12.13,5.88,18.19,17.63,18.19h1.04c1.38,0,2.07.23,2.07.69,0,1.23-1.31,3.3-3.92,6.22-2.61,2.92-5.49,5.49-8.64,7.72-3.38,2.3-7.07,4.15-11.07,5.53-4,1.38-7.62,2.07-10.85,2.07-8.08,0-14.64-2.73-19.68-8.18-5.04-5.45-7.56-12.68-7.56-21.66,0-3.84.67-8.87,2.02-15.1,1.34-6.22,3.44-14.56,6.28-25.01.46-1.84.96-3.78,1.5-5.82.54-2.03.84-3.24.92-3.63-3.07-.08-5.26-.73-6.57-1.96-1.31-1.23-1.96-3.23-1.96-5.99,0-4.84,1.86-9.41,5.59-13.71,3.72-4.3,8.08-6.99,13.08-8.07Z"/>
    <path class="cls-1" d="m949.68,126.24v.46l-.46-.46c-7.14,8.37-13.7,15.23-19.65,20.57-5.96,5.34-11.45,9.35-16.48,12.04-5.03,2.69-9.66,4.03-13.89,4.03-8.61,0-15.71-2.88-21.32-8.64-5.61-5.76-8.41-13.06-8.41-21.89,0-5.45,1.38-11.91,4.15-19.36,2.77-7.45,6.57-14.75,11.41-21.89,8.07-11.68,18.21-21.59,30.42-29.73,12.6-8.37,24.74-12.56,36.41-12.56,9.83,0,17.92,2.02,24.26,6.05s9.51,9.12,9.51,15.27c0,4.53-1.58,9.33-4.72,14.4,4.15,0,6.76.44,7.84,1.33,1.07.88,1.61,2.94,1.61,6.17,0-.31-.19,1.27-.58,4.72-.46,7.61-.69,14.71-.69,21.32,0,3.46.04,6.07.12,7.84.08,1.77.23,3.8.46,6.11s.46,4.15.69,5.53c.61,3.61,1.61,7.18,3,10.72-4.61,4.53-9.03,7.86-13.25,9.97-4.23,2.11-8.53,3.17-12.91,3.17-11.83,0-17.75-9.91-17.75-29.73,0-2.3.08-4.11.23-5.42Zm6.91-26.39l-2.19.69c-5.53,1.54-9.53,2.3-11.98,2.3-3,0-4.49-.77-4.49-2.3,0-.54.61-1.96,1.84-4.26,4.3-6.53,6.45-12.68,6.45-18.44,0-3.3-.58-6.32-1.73-9.05-1.15-2.73-2.42-4.09-3.8-4.09-1.23,0-3.11,1.31-5.65,3.92-7.14,7.76-12.81,15.71-17,23.85-4.19,8.14-6.28,15.4-6.28,21.78,0,4.23.86,7.72,2.59,10.49s3.9,4.15,6.51,4.15c2.23,0,6.4-2.38,12.5-7.14,6.11-4.76,12.96-11.06,20.57-18.9l3.11-2.54-.46-.46Z"/>
  </g>
</svg>