<?xml version="1.0" encoding="UTF-8"?>
<svg id="Layer_1" data-name="Layer 1" xmlns="http://www.w3.org/2000/svg" xmlns:xlink="http://www.w3.org/1999/xlink" viewBox="0 0 892.95 221.6">
  <defs>
    <style>
      .cls-1 {
        fill: url(#New_Gradient_Swatch);
        stroke-width: 0px;
      }

      .cls-2 {
        font-family: ForteMT, Forte;
        font-size: 211.17px;
      }
    </style>
    <linearGradient id="New_Gradient_Swatch" data-name="New Gradient Swatch" x1="4.23" y1="114.67" x2="891.51" y2="114.67" gradientUnits="userSpaceOnUse">
      <stop offset="0" stop-color="#6366f1"/>
      <stop offset=".5" stop-color="#a855f7"/>
      <stop offset="1" stop-color="#ec4899"/>
    </linearGradient>
  </defs>
  <text class="cls-2" transform="translate(0 176.43)"><tspan x="0" y="0">Lemonista</tspan></text>
  <g>
    <path class="cls-1" d="m64.43,87.96l-3.4,8.25c-4.47,10.59-8.63,21.14-12.47,31.66-1.86,5.09-4.67,13.96-8.45,26.61,5.71-.48,13.37-1.68,23-3.61,6.19-1.24,9.93-1.86,11.24-1.86,2.41,0,3.61.96,3.61,2.89,0,2.27-1.32,5.45-3.97,9.54-2.65,4.09-5.62,7.61-8.92,10.57-2.27,2.13-5.64,3.61-10.1,4.43-4.47.83-11.45,1.24-20.93,1.24-8.87,0-15.71-.28-20.52-.83-.07,0-1.2-.34-3.4-1.03-3.92-1.65-5.88-5.09-5.88-10.31,0-3.78,1.08-10.69,3.25-20.72s5.31-22.51,9.43-37.43c9.35-33.27,16.4-53.82,21.14-61.66,1.51-2.68,3.42-4.76,5.72-6.24,2.3-1.48,5.44-2.63,9.43-3.45,3.85-.83,8.28-1.24,13.3-1.24,4.67,0,7.96.6,9.85,1.8,1.89,1.2,2.84,3.28,2.84,6.24s-1.24,8.09-3.71,15.83-6.15,17.51-11.03,29.33Z"/>
    <path class="cls-1" d="m122.39,147.67c.76,4.12,3.44,6.19,8.04,6.19,5.16,0,11.86-3.03,20.11-9.07,4.81-3.51,8.04-5.26,9.69-5.26,2.06,0,3.99.55,5.77,1.65,1.79,1.1,2.68,2.23,2.68,3.4,0,1.24-1,2.85-2.99,4.85-3.64,3.64-7.84,7.2-12.58,10.67s-9.32,6.36-13.71,8.66c-4.4,2.3-8.8,4.12-13.2,5.46-4.4,1.34-8.32,2.01-11.75,2.01-8.59,0-15.47-2.46-20.62-7.37-5.16-4.91-7.73-11.46-7.73-19.64,0-6.25,1.36-13.32,4.07-21.19,2.71-7.87,6.38-15.24,10.98-22.12,5.43-8.04,12.1-14.75,20-20.11,9.76-6.46,19.11-9.69,28.05-9.69,6.46,0,11.53,2.05,15.21,6.14,3.68,4.09,5.52,9.71,5.52,16.86,0,5.57-1.46,11.38-4.38,17.43-2.92,6.05-7.24,11.86-12.94,17.43-4.68,4.68-9.26,8.32-13.77,10.93-4.5,2.61-8.44,3.92-11.81,3.92-1.51,0-3.06-.38-4.64-1.13Zm-.21-3.3c3.16-2.13,5.57-4.26,7.22-6.39,3.64-4.47,6.46-9.59,8.46-15.36,1.58-3.78,2.82-8.01,3.71-12.68.89-4.67,1.34-9.04,1.34-13.1,0-3.78-.79-5.67-2.37-5.67-2.2,0-5.57,4.85-10.1,14.54-2.68,5.84-4.86,11.67-6.55,17.48-1.69,5.81-2.53,10.81-2.53,15,0,1.44.27,3.51.83,6.19Z"/>
    <path class="cls-1" d="m289.23,139.11l-28.15,28.87c-3.64,3.64-6.58,6.13-8.82,7.48-2.23,1.34-4.69,2.01-7.37,2.01-4.19,0-7.72-1.56-10.57-4.69-2.85-3.13-4.28-6.96-4.28-11.5,0-2.82.43-5.89,1.29-9.23.86-3.33,2.56-8.3,5.1-14.9.48-1.38.94-2.56,1.39-3.56.45-1,.81-1.84,1.08-2.53l-.41-.41c-6.67,7.01-13.2,14.4-19.59,22.17-5.36,6.39-9.62,11.17-12.79,14.33-3.16,3.16-6.02,5.53-8.56,7.12-2.54,1.58-4.81,2.37-6.81,2.37-4.47,0-8.01-1.75-10.62-5.26-2.61-3.51-3.92-8.28-3.92-14.33,0-7.63,3.3-19.97,9.9-37.02,5.91-15.12,10.48-25.26,13.71-30.42,4.74-7.15,10.17-10.72,16.28-10.72,3.71,0,6.78.88,9.22,2.63,2.44,1.75,3.66,4.04,3.66,6.85,0,5.15-1.95,13.02-5.85,23.6-1.51,3.92-3.05,8.35-4.62,13.29l.41.41c2.54-2.82,6.63-7.66,12.26-14.53,9.68-11.95,17-20.09,21.95-24.42,6.39-5.91,12.24-8.86,17.53-8.86,2.34,0,4.57.79,6.7,2.37,2.13,1.58,3.83,3.7,5.11,6.34,1.27,2.65,1.91,5.41,1.91,8.3s-2.12,10.52-6.37,22.7c-.89,2.54-1.58,4.54-2.05,5.98-.48,1.45-.92,2.68-1.34,3.71l.51.41c.96-.96,1.82-1.82,2.57-2.58.75-.76,1.6-1.56,2.52-2.42.93-.86,1.8-1.67,2.63-2.43,1.85-1.79,6.52-6.5,14-14.14,4.94-5.5,8.82-9.27,11.64-11.3,2.82-2.03,5.53-3.04,8.15-3.04,4.26,0,7.51,1.46,9.74,4.38,2.23,2.92,3.35,7.24,3.35,12.94,0,3.51-.55,9.04-1.65,16.6-.96,8.52-1.63,15.21-2.01,20.05-.38,4.85-.57,8.23-.57,10.16,0,1.44.09,3.29.26,5.52.17,2.23.46,4.62.88,7.17.41,2.54.96,5.36,1.65,8.46.83,3.78,1.37,6.74,1.65,8.87-.55,2.47-2.36,4.57-5.41,6.29-3.06,1.72-6.38,2.58-9.95,2.58-5.64,0-10.93-2.54-15.88-7.63-2.2-2.34-3.9-4.69-5.1-7.06-1.2-2.37-2.06-5.19-2.58-8.46-.52-3.26-.77-7.58-.77-12.94,0-3.51.41-10.76,1.24-21.76l-.41-.41-1.86,2.58Z"/>
    <path class="cls-1" d="m408.32,72.7c10.24,0,15.36,1.2,15.36,3.61,0,2.75-2.3,4.23-6.91,4.43-5.57.34-10.76,1.92-15.57,4.74-4.81,2.82-9.09,6.67-12.84,11.55-3.75,4.88-6.67,10.38-8.76,16.5-2.1,6.12-3.15,12.58-3.15,19.38,0,7.49,1.75,13.53,5.26,18.1s8.08,6.86,13.71,6.86c5.22,0,9.8-2.68,13.71-8.04,3.92-5.36,5.88-11.62,5.88-18.77,0-5.84-1.22-11.32-3.66-16.45-2.44-5.12-6-9.44-10.67-12.94-1.99-1.58-2.99-2.71-2.99-3.4,0-.96,1.41-2.44,4.23-4.43,3.16-2.13,6.7-3.92,10.62-5.36,3.92-1.44,7.22-2.17,9.9-2.17,3.09,0,6.03.81,8.82,2.42,2.78,1.62,5.24,3.92,7.37,6.91,2.13,2.99,3.76,6.43,4.9,10.31,1.13,3.88,1.7,8.03,1.7,12.43,0,7.29-1.38,14.49-4.12,21.6-2.75,7.12-6.36,12.87-10.83,17.27-5.77,5.57-12.73,10.12-20.88,13.66-8.15,3.54-15.9,5.31-23.25,5.31s-14.25-1.24-21.29-3.71c-7.05-2.47-12.63-5.74-16.76-9.79-5.5-5.5-8.25-13.3-8.25-23.41,0-7.97,1.96-15.95,5.88-23.92,3.92-7.97,9.23-15.21,15.93-21.71,6.7-6.5,14.09-11.62,22.17-15.36,8.08-3.75,16.24-5.62,24.49-5.62Z"/>
    <path class="cls-1" d="m498.2,122.07l6.21-7.24c6.28-6.96,11.26-12.15,14.94-15.56s6.97-5.87,9.89-7.39c2.92-1.51,5.89-2.27,8.91-2.27,4.88,0,8.31,1.31,10.3,3.92,1.99,2.61,2.99,7.15,2.99,13.61,0,2.68-.28,6.63-.83,11.86-.82,6.95-1.24,13.47-1.24,19.59,0,6.88.34,12.44,1.03,16.71.48,2.61,1.2,5.22,2.16,7.84.69,2.47,1.03,4.16,1.03,5.05,0,1.1-.41,1.96-1.24,2.58-2.13,1.86-4.95,3.47-8.46,4.85s-6.46,2.06-8.87,2.06c-3.92,0-7.48-1.34-10.67-4.02-3.2-2.68-5.67-6.39-7.42-11.14-1.75-4.74-2.63-10.11-2.63-16.09,0-3.98.41-8.7,1.24-14.12l-.41-.41c-2.96,3.3-5.35,5.91-7.17,7.84-1.82,1.93-3.52,3.75-5.1,5.46-7.7,8.8-14.23,16.74-19.59,23.82-2.06,2.75-3.95,5.16-5.67,7.22-2.54,2.54-5.43,3.81-8.66,3.81-4.4,0-7.97-1.65-10.72-4.95-2.75-3.3-4.12-7.56-4.12-12.79,0-3.23.38-7.18,1.13-11.86.76-4.67,1.77-9.67,3.04-15,1.27-5.33,2.78-10.81,4.54-16.45,1.75-5.63,3.66-11,5.72-16.08,3.16-8.46,7.01-15.05,11.55-19.8,3.09-3.09,6.84-4.64,11.24-4.64,7.15,0,10.72,4.64,10.72,13.92,0,6.81-1.42,16.56-4.27,29.25l.41.41Z"/>
    <path class="cls-1" d="m576.79,177.46c-3.09-.21-5.91-1.61-8.45-4.23-2.54-2.75-4.34-5.72-5.41-8.92-1.06-3.2-1.59-7.34-1.59-12.43,0-11.34,2.11-24.14,6.34-38.41,4.23-14.26,9.02-24.59,14.38-30.98,2.13-2.68,5.09-4.02,8.87-4.02,3.99,0,7.2,1.82,9.64,5.46s3.66,8.42,3.66,14.33c0,8.73-1.26,18.95-3.77,30.67-2.51,11.72-6.04,23.9-10.59,36.55-1.79,5.09-3.98,8.53-6.59,10.32-1.79,1.1-3.88,1.65-6.28,1.65h-.2Zm12.39-103.63c-6.46-.21-9.69-4.09-9.69-11.65,0-3.78.95-8.16,2.84-13.15,1.89-4.98,4.04-8.68,6.45-11.08,1.24-1.3,2.49-2.23,3.76-2.78,1.27-.55,2.9-.82,4.9-.82,3.44,0,5.96.84,7.58,2.53,1.61,1.68,2.42,4.49,2.42,8.4,0,4.88-.84,9.5-2.53,13.87-1.69,4.37-3.94,7.91-6.75,10.62-2.82,2.72-5.71,4.07-8.66,4.07h-.31Z"/>
    <path class="cls-1" d="m645.17,180.87c4.05-.21,7.75-2.18,11.08-5.93s5-7.82,5-12.22c0-3.03-1-5.43-2.99-7.22-2.13-2.13-6.91-4.23-14.33-6.29-10.93-3.16-18.04-6.7-21.34-10.62-3.09-3.16-4.64-6.94-4.64-11.34,0-7.9,2.87-15.81,8.61-23.72,5.74-7.9,13.08-14.38,22.01-19.44,8.94-5.05,17.94-7.58,27.02-7.58,4.4,0,8.52,1.03,12.37,3.09,3.85,2.06,6.91,4.79,9.18,8.2,2.27,3.4,3.4,7.1,3.4,11.08s-1.24,7.97-3.71,12.17c-2.47,4.19-5.59,7.68-9.33,10.47-3.75,2.78-7.31,4.18-10.67,4.18-1.92,0-3.59-.41-5-1.24-1.41-.82-2.11-1.72-2.11-2.68s.27-2.37.82-4.23c1.51-5.91,2.27-11.07,2.27-15.47s-1.31-8.42-3.92-12.27c-3.37,2.34-5.57,4.19-6.6,5.56-2.61,3.02-4.64,6.46-6.08,10.3-1.58,3.92-2.37,7.62-2.37,11.12,0,2.47.57,4.45,1.71,5.92s3,2.73,5.57,3.76c2.58,1.03,6.48,2.17,11.7,3.41,8.73,2.13,14.88,4.2,18.45,6.19.82.48,2.1,1.48,3.81,2.99,2.61,2.82,3.92,6.46,3.92,10.93,0,4.75-1.48,9.54-4.43,14.39-2.96,4.85-7.53,9.85-13.71,15.01-6.6,5.57-13.16,9.56-19.69,11.96-6.53,2.41-13.75,3.61-21.65,3.61s-13.63-1.51-17.99-4.54c-4.37-3.03-6.55-7.15-6.55-12.37,0-3.71,1.45-7.48,4.33-11.29s6.48-6.92,10.78-9.33c4.29-2.4,8.51-3.61,12.63-3.61,3.09,0,4.64.69,4.64,2.06,0,.69-.45,1.82-1.34,3.4-2.68,4.81-4.02,9.25-4.02,13.3,0,2.89,1.07,5.63,3.2,8.25Z"/>
    <path class="cls-1" d="m728.69,76.72l.41-1.24c4.54-12.79,8.46-21.79,11.77-27.02,1.58-2.47,3.79-4.67,6.61-6.6,5.3-3.37,10.29-5.05,14.97-5.05,2.75,0,4.85.62,6.3,1.86,1.45,1.24,2.17,3.03,2.17,5.37,0,1.58-1.04,4.81-3.11,9.68-3.53,8.11-6.16,15.7-7.88,22.78,1.17.14,2.3.34,3.41.62,4.13.62,6.85,1.32,8.16,2.12s1.96,2.22,1.96,4.28c0,3.64-.93,7.01-2.78,10.11-1.86,3.09-4.29,5.37-7.32,6.81-2.27,1.03-5.94,1.72-11.03,2.06-.88,2.68-1.87,6.36-2.96,11.04-.61,4.13-1.29,9.84-2.04,17.12-.41,2.68-.62,5.19-.62,7.52,0,10.85,5.26,16.28,15.78,16.28h.93c1.24,0,1.86.21,1.86.62,0,1.1-1.17,2.96-3.51,5.57-2.34,2.61-4.91,4.92-7.73,6.91-3.03,2.06-6.33,3.71-9.91,4.95-3.58,1.24-6.82,1.86-9.71,1.86-7.23,0-13.1-2.44-17.62-7.32s-6.77-11.34-6.77-19.38c0-3.44.6-7.94,1.8-13.51,1.2-5.57,3.07-13.03,5.62-22.38.41-1.65.86-3.38,1.34-5.21.48-1.82.76-2.9.82-3.25-2.75-.07-4.71-.65-5.88-1.75-1.17-1.1-1.75-2.89-1.75-5.36,0-4.33,1.67-8.42,5-12.27,3.33-3.85,7.23-6.25,11.7-7.22Z"/>
    <path class="cls-1" d="m852.43,146.43v.41l-.41-.41c-6.39,7.49-12.25,13.63-17.58,18.41-5.33,4.78-10.24,8.37-14.74,10.78-4.5,2.4-8.65,3.61-12.43,3.61-7.7,0-14.06-2.58-19.08-7.73-5.02-5.15-7.53-11.69-7.53-19.59,0-4.88,1.24-10.65,3.71-17.32,2.47-6.67,5.88-13.2,10.21-19.59,7.22-10.45,16.29-19.31,27.22-26.6,11.27-7.49,22.13-11.24,32.58-11.24,8.8,0,16.04,1.8,21.71,5.41,5.67,3.61,8.51,8.16,8.51,13.66,0,4.06-1.41,8.35-4.23,12.89,3.71,0,6.05.4,7.01,1.19.96.79,1.44,2.63,1.44,5.52,0-.27-.17,1.13-.52,4.23-.41,6.81-.62,13.17-.62,19.08,0,3.09.03,5.43.1,7.01.07,1.58.21,3.4.41,5.46.21,2.06.41,3.71.62,4.95.55,3.23,1.45,6.43,2.68,9.59-4.12,4.06-8.08,7.03-11.86,8.92-3.78,1.89-7.63,2.83-11.55,2.83-10.59,0-15.88-8.87-15.88-26.6,0-2.06.07-3.68.21-4.85Zm6.19-23.61l-1.96.62c-4.95,1.38-8.53,2.06-10.72,2.06-2.68,0-4.02-.69-4.02-2.06,0-.48.55-1.75,1.65-3.82,3.85-5.84,5.78-11.34,5.78-16.5,0-2.96-.52-5.65-1.55-8.09-1.03-2.44-2.17-3.66-3.4-3.66-1.1,0-2.79,1.17-5.05,3.51-6.39,6.94-11.46,14.06-15.21,21.34-3.75,7.29-5.62,13.78-5.62,19.49,0,3.78.77,6.91,2.32,9.38s3.49,3.71,5.83,3.71c1.99,0,5.72-2.13,11.19-6.39,5.46-4.26,11.6-9.9,18.41-16.91l2.78-2.27-.41-.41Z"/>
  </g>
</svg>